# xmcd
#
# Track frame offsets: 
#        150
#        30983
#        67143
#        100537
#        131330
#        165232
#        190194
#
# Disc length: 3430 seconds
#
# Revision: 2
# Processed by: cddbd v1.5.2PL0 Copyright (c) Steve Scherf et al.
# Submitted via: ExactAudioCopy v0.99pb5
#
DISCID=4c0d6407
DTITLE=Manhattan Jazz Quintet - V.S.O.P. (Very Special Onetime Perform
DTITLE=ance)
DYEAR=2009
DGENRE=Jazz
TTITLE0=Autumn Leaves
TTITLE1=My Funny Valentine
TTITLE2=Some Skunk Funk
TTITLE3=Time After TIme
TTITLE4=Footprints
TTITLE5=Walkin'
TTITLE6=Miles Davis Marathon Session Medley
EXTD=
EXTT0=
EXTT1=
EXTT2=
EXTT3=
EXTT4=
EXTT5=
EXTT6=
PLAYORDER=
